<svg class="border shadow-md" viewBox="0 0 1392.3555555555556 783.2" style="width: 1392.36px; height: 783.2px;" xmlns="http://www.w3.org/2000/svg" preserveAspectRatio="none"><rect class="bg" id="bg" x="0" y="0" width="1392.3555555555556" height="783.2" fill="#ffffff"/><path d="M 0 -65.26666666666667 L 0 -65.27&#10;                L 92.82 -32.63&#10;                L 278.4711111111111 -65.27 L 278.4711111111111 -65.27&#10;                L 411.47 -32.63&#10;                L 556.9422222222222 -65.27 L 556.9422222222222 -65.27&#10;                L 649.77 -24.27&#10;                L 835.4133333333333 -65.27 L 835.4133333333333 -65.27&#10;                L 928.24 -22.27&#10;                L 1113.8844444444444 -65.27 L 1113.8844444444444 -65.27&#10;                L 1288.88 -15.27&#10;                L 1392.3555555555554 -65.27 L 1392.3555555555554 -65.27&#10;                L 1485.18 -30.27&#10;                L 1670.8266666666664 -65.27  V 783.20 H 0 V -65.27 Z" fill="#16171A"/><path d="M 0 0 L 0 0.00&#10;                L 118.00 33.00&#10;                L 278.4711111111111 0.00 L 278.4711111111111 0.00&#10;                L 373.47 32.63&#10;                L 556.9422222222222 0.00 L 556.9422222222222 0.00&#10;                L 649.77 32.63&#10;                L 835.4133333333333 0.00 L 835.4133333333333 0.00&#10;                L 928.24 32.63&#10;                L 1113.8844444444444 0.00 L 1113.8844444444444 0.00&#10;                L 1212.88 32.63&#10;                L 1392.3555555555554 0.00 L 1392.3555555555554 0.00&#10;                L 1485.18 59.00&#10;                L 1670.8266666666664 0.00  V 783.20 H 0 V 0.00 Z" fill="#1a1b1f"/><path d="M 0 65.26666666666667 L 0 65.27&#10;                L 114.00 97.90&#10;                L 278.4711111111111 65.27 L 278.4711111111111 65.27&#10;                L 371.29 121.27&#10;                L 556.9422222222222 65.27 L 556.9422222222222 65.27&#10;                L 649.77 98.27&#10;                L 835.4133333333333 65.27 L 835.4133333333333 65.27&#10;                L 928.24 97.90&#10;                L 1113.8844444444444 65.27 L 1113.8844444444444 65.27&#10;                L 1290.88 117.27&#10;                L 1392.3555555555554 65.27 L 1392.3555555555554 65.27&#10;                L 1595.36 130.27&#10;                L 1670.8266666666664 65.27  V 783.20 H 0 V 65.27 Z" fill="#1e1f24"/><path d="M 0 130.53333333333333 L 0 130.53&#10;                L 92.82 163.17&#10;                L 278.4711111111111 130.53 L 278.4711111111111 130.53&#10;                L 403.47 181.53&#10;                L 556.9422222222222 130.53 L 556.9422222222222 130.53&#10;                L 649.77 163.17&#10;                L 835.4133333333333 130.53 L 835.4133333333333 130.53&#10;                L 976.41 172.53&#10;                L 1113.8844444444444 130.53 L 1113.8844444444444 130.53&#10;                L 1237.88 175.53&#10;                L 1392.3555555555554 130.53 L 1392.3555555555554 130.53&#10;                L 1485.18 177.53&#10;                L 1670.8266666666664 130.53  V 783.20 H 0 V 130.53 Z" fill="#222329"/><path d="M 0 195.8 L 0 195.80&#10;                L 92.82 233.80&#10;                L 278.4711111111111 195.80 L 278.4711111111111 195.80&#10;                L 371.29 228.43&#10;                L 556.9422222222222 195.80 L 556.9422222222222 195.80&#10;                L 727.94 238.80&#10;                L 835.4133333333333 195.80 L 835.4133333333333 195.80&#10;                L 964.41 255.80&#10;                L 1113.8844444444444 195.80 L 1113.8844444444444 195.80&#10;                L 1206.71 228.43&#10;                L 1392.3555555555554 195.80 L 1392.3555555555554 195.80&#10;                L 1485.18 228.43&#10;                L 1670.8266666666664 195.80  V 783.20 H 0 V 195.80 Z" fill="#26272e"/><path d="M 0 261.06666666666666 L 0 261.07&#10;                L 92.82 293.70&#10;                L 278.4711111111111 261.07 L 278.4711111111111 261.07&#10;                L 402.47 313.07&#10;                L 556.9422222222222 261.07 L 556.9422222222222 261.07&#10;                L 649.77 312.07&#10;                L 835.4133333333333 261.07 L 835.4133333333333 261.07&#10;                L 928.24 312.07&#10;                L 1113.8844444444444 261.07 L 1113.8844444444444 261.07&#10;                L 1206.71 314.07&#10;                L 1392.3555555555554 261.07 L 1392.3555555555554 261.07&#10;                L 1485.18 321.07&#10;                L 1670.8266666666664 261.07  V 783.20 H 0 V 261.07 Z" fill="#2a2b33"/><path d="M 0 326.3333333333333 L 0 326.33&#10;                L 92.82 358.97&#10;                L 278.4711111111111 326.33 L 278.4711111111111 326.33&#10;                L 449.47 383.33&#10;                L 556.9422222222222 326.33 L 556.9422222222222 326.33&#10;                L 649.77 358.97&#10;                L 835.4133333333333 326.33 L 835.4133333333333 326.33&#10;                L 928.24 389.33&#10;                L 1113.8844444444444 326.33 L 1113.8844444444444 326.33&#10;                L 1276.88 360.33&#10;                L 1392.3555555555554 326.33 L 1392.3555555555554 326.33&#10;                L 1577.36 358.97&#10;                L 1670.8266666666664 326.33  V 783.20 H 0 V 326.33 Z" fill="#2e2f38"/><path d="M 0 391.6 L 0 391.60&#10;                L 106.00 433.60&#10;                L 278.4711111111111 391.60 L 278.4711111111111 391.60&#10;                L 371.29 424.23&#10;                L 556.9422222222222 391.60 L 556.9422222222222 391.60&#10;                L 722.94 450.60&#10;                L 835.4133333333333 391.60 L 835.4133333333333 391.60&#10;                L 928.24 448.60&#10;                L 1113.8844444444444 391.60 L 1113.8844444444444 391.60&#10;                L 1206.71 435.60&#10;                L 1392.3555555555554 391.60 L 1392.3555555555554 391.60&#10;                L 1485.18 428.60&#10;                L 1670.8266666666664 391.60  V 783.20 H 0 V 391.60 Z" fill="#32333d"/><path d="M 0 456.8666666666667 L 0 456.87&#10;                L 92.82 493.87&#10;                L 278.4711111111111 456.87 L 278.4711111111111 456.87&#10;                L 379.47 489.50&#10;                L 556.9422222222222 456.87 L 556.9422222222222 456.87&#10;                L 657.94 499.87&#10;                L 835.4133333333333 456.87 L 835.4133333333333 456.87&#10;                L 961.41 489.50&#10;                L 1113.8844444444444 456.87 L 1113.8844444444444 456.87&#10;                L 1206.71 503.87&#10;                L 1392.3555555555554 456.87 L 1392.3555555555554 456.87&#10;                L 1540.36 508.87&#10;                L 1670.8266666666664 456.87  V 783.20 H 0 V 456.87 Z" fill="#363742"/><path d="M 0 522.1333333333333 L 0 522.13&#10;                L 167.00 554.77&#10;                L 278.4711111111111 522.13 L 278.4711111111111 522.13&#10;                L 371.29 554.77&#10;                L 556.9422222222222 522.13 L 556.9422222222222 522.13&#10;                L 649.77 557.13&#10;                L 835.4133333333333 522.13 L 835.4133333333333 522.13&#10;                L 928.24 554.77&#10;                L 1113.8844444444444 522.13 L 1113.8844444444444 522.13&#10;                L 1290.88 555.13&#10;                L 1392.3555555555554 522.13 L 1392.3555555555554 522.13&#10;                L 1485.18 584.13&#10;                L 1670.8266666666664 522.13  V 783.20 H 0 V 522.13 Z" fill="#3a3b47"/><path d="M 0 587.4 L 0 587.40&#10;                L 92.82 620.03&#10;                L 278.4711111111111 587.40 L 278.4711111111111 587.40&#10;                L 396.47 624.40&#10;                L 556.9422222222222 587.40 L 556.9422222222222 587.40&#10;                L 649.77 620.03&#10;                L 835.4133333333333 587.40 L 835.4133333333333 587.40&#10;                L 928.24 620.03&#10;                L 1113.8844444444444 587.40 L 1113.8844444444444 587.40&#10;                L 1299.88 623.40&#10;                L 1392.3555555555554 587.40 L 1392.3555555555554 587.40&#10;                L 1485.18 641.40&#10;                L 1670.8266666666664 587.40  V 783.20 H 0 V 587.40 Z" fill="#3e3f4c"/><path d="M 0 652.6666666666666 L 0 652.67&#10;                L 138.00 697.67&#10;                L 278.4711111111111 652.67 L 278.4711111111111 652.67&#10;                L 371.29 696.67&#10;                L 556.9422222222222 652.67 L 556.9422222222222 652.67&#10;                L 649.77 685.30&#10;                L 835.4133333333333 652.67 L 835.4133333333333 652.67&#10;                L 928.24 685.30&#10;                L 1113.8844444444444 652.67 L 1113.8844444444444 652.67&#10;                L 1306.88 713.67&#10;                L 1392.3555555555554 652.67 L 1392.3555555555554 652.67&#10;                L 1485.18 685.30&#10;                L 1670.8266666666664 652.67  V 783.20 H 0 V 652.67 Z" fill="#424351"/><path d="M 0 717.9333333333333 L 0 717.93&#10;                L 137.00 768.93&#10;                L 278.4711111111111 717.93 L 278.4711111111111 717.93&#10;                L 453.47 750.57&#10;                L 556.9422222222222 717.93 L 556.9422222222222 717.93&#10;                L 649.77 750.57&#10;                L 835.4133333333333 717.93 L 835.4133333333333 717.93&#10;                L 980.41 755.93&#10;                L 1113.8844444444444 717.93 L 1113.8844444444444 717.93&#10;                L 1307.88 779.93&#10;                L 1392.3555555555554 717.93 L 1392.3555555555554 717.93&#10;                L 1485.18 750.57&#10;                L 1670.8266666666664 717.93  V 783.20 H 0 V 717.93 Z" fill="#464756"/></svg>